<?xml version="1.0" encoding="UTF-8" standalone="no"?>
<svg width="640" height="640" viewBox="0 0 169.33333 169.33334"
   xmlns:svg="http://www.w3.org/2000/svg" xmlns="http://www.w3.org/2000/svg"
   xmlns:sodipodi="http://sodipodi.sourceforge.net/DTD/sodipodi-0.dtd" xmlns:inkscape="http://www.inkscape.org/namespaces/inkscape"
   >
  <style>
    path { fill:#353535; fill-opacity:1;s }
    @media (prefers-color-scheme: dark) {
      path { fill:#DFDFDF; }
    }
  </style>
  <g transform="translate(0,-127.66666)">
    <path transform="matrix(0.26458333,0,0,0.26458333,0,127.66666)" id="rect3715"
       style="stroke-width:0.99999994;"
       d="M 40 40 L 40 600 L 600 600 L 600 280 L 560 280 L 560 560 L 80 560 L 80 80 L 360 80 L 360 40 L 40 40 z "
        />
    <path transform="matrix(0.26458333,0,0,0.26458333,0,127.66666)" id="text3734"
       style="font-style:normal;font-variant:normal;font-weight:bold;font-stretch:normal;font-size:77.6111145px;line-height:1.25;font-family:'Segoe UI';-inkscape-font-specification:'Segoe UI Bold';letter-spacing:0px;word-spacing:0px;troke:none;stroke-width:0.99999994"
       d="M 60 309.18164 L 60 526.31641 L 78.875 526.31641 L 78.875 453.55664 L 79.447266 453.55664 L 126.2832 526.31641 L 180.56641 526.31641 L 124.27734 448.54297 L 176.84375 379.65039 L 123.13281 379.65039 L 79.447266 447.39844 L 78.875 447.39844 L 78.875 309.18164 L 60 309.18164 z M 197.46875 309.18164 L 197.46875 526.31641 L 242.72852 526.31641 L 242.72852 509.27344 L 243.30078 509.27344 C 252.56293 523.02344 266.21875 529.89844 284.26562 529.89844 C 304.22222 529.89844 320.16775 522.49761 332.10352 507.69727 C 344.03928 492.89692 350.00781 473.27452 350.00781 448.83008 C 350.00781 426.29535 344.89865 408.53494 334.68164 395.54883 C 324.46463 382.56272 309.90234 376.07031 290.99609 376.07031 C 270.37109 376.07031 254.47266 384.61502 243.30078 401.70703 L 242.72852 401.70703 L 242.72852 309.18164 L 197.46875 309.18164 z M 451.55664 376.07031 C 426.82574 376.07031 407.20334 382.94531 392.68945 396.69531 C 378.17556 410.34983 370.91797 429.30317 370.91797 453.55664 C 370.91797 477.04622 377.88911 495.66602 391.83008 509.41602 C 405.86654 523.07053 425.10634 529.89844 449.55078 529.89844 C 474.37717 529.89844 493.90538 522.83116 508.13281 508.69922 C 522.45573 494.56727 529.61719 475.32748 529.61719 450.97852 C 529.61719 428.44379 522.69314 410.34983 508.84766 396.69531 C 495.00217 382.94531 475.9056 376.07031 451.55664 376.07031 z M 273.52344 410.73047 C 283.16754 410.73047 290.56641 414.16797 295.72266 421.04297 C 300.97439 427.82248 303.60156 437.27561 303.60156 449.40234 C 303.60156 464.01172 300.73698 475.32682 295.00781 483.34766 C 289.37413 491.273 281.40039 495.23633 271.08789 495.23633 C 262.58963 495.23633 255.61849 492.13238 250.17578 485.92578 C 244.73307 479.71918 242.01172 471.89063 242.01172 462.4375 L 242.01172 447.39844 C 242.01172 436.51302 244.97244 427.6799 250.89258 420.90039 C 256.9082 414.12088 264.45226 410.73047 273.52344 410.73047 z M 450.69727 410.73047 C 472.56359 410.73047 483.49609 424.43338 483.49609 451.83789 C 483.49609 480.77018 472.65972 495.23633 450.98438 495.23633 C 428.25868 495.23633 416.89453 481.15278 416.89453 452.98438 C 416.89453 439.52083 419.85525 429.1122 425.77539 421.75977 C 431.69553 414.40733 440.00282 410.73047 450.69727 410.73047 z "
        />
  </g>
</svg>